<mxGraphModel dx="0" dy="0" grid="1" gridSize="10" guides="1" tooltips="1" connect="1" arrows="1" fold="1" page="0" pageScale="1" background="none" math="0" shadow="0">
  <root>
    <mxCell id="0" />
    <mxCell id="1" parent="0" />
    <mxCell id="node2" parent="1" vertex="1" value="&lt;p style=&quot;margin:0px;margin-top:4px;text-align:center;&quot;&gt;&lt;b&gt;_prisma_migrations&lt;/b&gt;&lt;/p&gt;&lt;hr size=&quot;1&quot;/&gt;&lt;p style=&quot;margin:0 0 0 4px;line-height:1.6;&quot;&gt; checksum: varchar(64)&lt;br/&gt; finished_at: datetime(3)&lt;br/&gt; migration_name: varchar(255)&lt;br/&gt; logs: text&lt;br/&gt; rolled_back_at: datetime(3)&lt;br/&gt; started_at: datetime(3)&lt;br/&gt; applied_steps_count: int unsigned&lt;/p&gt;&lt;hr size=&quot;1&quot;/&gt;&lt;p style=&quot;margin:0 0 0 4px;line-height:1.6;&quot;&gt; id: varchar(36)&lt;/p&gt;" style="verticalAlign=top;align=left;overflow=fill;fontSize=14;fontFamily=Helvetica;html=1;rounded=0;shadow=0;comic=0;labelBackgroundColor=none;strokeWidth=1;">
      <mxGeometry x="292" y="440" width="242" height="232" as="geometry" />
    </mxCell>
    <mxCell id="node1" parent="1" vertex="1" value="&lt;p style=&quot;margin:0px;margin-top:4px;text-align:center;&quot;&gt;&lt;b&gt;attendees&lt;/b&gt;&lt;/p&gt;&lt;hr size=&quot;1&quot;/&gt;&lt;p style=&quot;margin:0 0 0 4px;line-height:1.6;&quot;&gt; user_id: varchar(191)&lt;br/&gt; event_id: varchar(36)&lt;br/&gt; registration_time: datetime(3)&lt;br/&gt; has_attended: tinyint(1)&lt;br/&gt; check_in_time: datetime(3)&lt;br/&gt; feedback: varchar(512)&lt;br/&gt; qrToken: varchar(512)&lt;br/&gt; status: enum(&amp;#39;1&amp;#39;, &amp;#39;2&amp;#39;, &amp;#39;3&amp;#39;, &amp;#39;4&amp;#39;, &amp;#39;5&amp;#39;)&lt;br/&gt; allowedStatus: tinyint(1)&lt;br/&gt; deleted: tinyint(1)&lt;br/&gt; updated_at: datetime(3)&lt;/p&gt;&lt;hr size=&quot;1&quot;/&gt;&lt;p style=&quot;margin:0 0 0 4px;line-height:1.6;&quot;&gt; id: varchar(36)&lt;/p&gt;" style="verticalAlign=top;align=left;overflow=fill;fontSize=14;fontFamily=Helvetica;html=1;rounded=0;shadow=0;comic=0;labelBackgroundColor=none;strokeWidth=1;">
      <mxGeometry x="305" y="1072" width="217" height="328" as="geometry" />
    </mxCell>
    <mxCell id="node4" parent="1" vertex="1" value="&lt;p style=&quot;margin:0px;margin-top:4px;text-align:center;&quot;&gt;&lt;b&gt;cohosts&lt;/b&gt;&lt;/p&gt;&lt;hr size=&quot;1&quot;/&gt;&lt;p style=&quot;margin:0 0 0 4px;line-height:1.6;&quot;&gt; user_id: varchar(191)&lt;br/&gt; event_id: varchar(36)&lt;br/&gt; role: enum(&amp;#39;1&amp;#39;, &amp;#39;2&amp;#39;, &amp;#39;3&amp;#39;, &amp;#39;4&amp;#39;)&lt;/p&gt;&lt;hr size=&quot;1&quot;/&gt;&lt;p style=&quot;margin:0 0 0 4px;line-height:1.6;&quot;&gt; id: varchar(36)&lt;/p&gt;" style="verticalAlign=top;align=left;overflow=fill;fontSize=14;fontFamily=Helvetica;html=1;rounded=0;shadow=0;comic=0;labelBackgroundColor=none;strokeWidth=1;">
      <mxGeometry x="83" y="908" width="180" height="147" as="geometry" />
    </mxCell>
    <mxCell id="node3" parent="1" vertex="1" value="&lt;p style=&quot;margin:0px;margin-top:4px;text-align:center;&quot;&gt;&lt;b&gt;events&lt;/b&gt;&lt;/p&gt;&lt;hr size=&quot;1&quot;/&gt;&lt;p style=&quot;margin:0 0 0 4px;line-height:1.6;&quot;&gt; creator_id: varchar(191)&lt;br/&gt; name: varchar(256)&lt;br/&gt; category: varchar(256)&lt;br/&gt; start_time: datetime(3)&lt;br/&gt; end_time: datetime(3)&lt;br/&gt; event_date: datetime(3)&lt;br/&gt; description: varchar(512)&lt;br/&gt; event_image_id: varchar(256)&lt;br/&gt; venue_type: enum(&amp;#39;physical&amp;#39;, &amp;#39;virtual&amp;#39;, &amp;#39;later&amp;#39;)&lt;br/&gt; venue_address: varchar(256)&lt;br/&gt; venue_url: varchar(256)&lt;br/&gt; host_permission_required: tinyint(1)&lt;br/&gt; capacity: int&lt;br/&gt; created_at: datetime(3)&lt;br/&gt; updated_at: datetime(3)&lt;br/&gt; isActive: tinyint(1)&lt;br/&gt; slug: varchar(256)&lt;br/&gt; is_cancelled: tinyint(1)&lt;br/&gt; is_deleted: tinyint(1)&lt;/p&gt;&lt;hr size=&quot;1&quot;/&gt;&lt;p style=&quot;margin:0 0 0 4px;line-height:1.6;&quot;&gt; id: varchar(36)&lt;/p&gt;" style="verticalAlign=top;align=left;overflow=fill;fontSize=14;fontFamily=Helvetica;html=1;rounded=0;shadow=0;comic=0;labelBackgroundColor=none;strokeWidth=1;">
      <mxGeometry x="-98" y="296" width="302" height="520" as="geometry" />
    </mxCell>
    <mxCell id="node0" parent="1" vertex="1" value="&lt;p style=&quot;margin:0px;margin-top:4px;text-align:center;&quot;&gt;&lt;b&gt;updates&lt;/b&gt;&lt;/p&gt;&lt;hr size=&quot;1&quot;/&gt;&lt;p style=&quot;margin:0 0 0 4px;line-height:1.6;&quot;&gt; event_id: varchar(36)&lt;br/&gt; content: varchar(512)&lt;br/&gt; created_at: datetime(3)&lt;br/&gt; updated_at: datetime(3)&lt;br/&gt; is_notification: tinyint(1)&lt;br/&gt; scheduled_notification_time: datetime(3)&lt;br/&gt; user_id: varchar(191)&lt;/p&gt;&lt;hr size=&quot;1&quot;/&gt;&lt;p style=&quot;margin:0 0 0 4px;line-height:1.6;&quot;&gt; id: varchar(36)&lt;/p&gt;" style="verticalAlign=top;align=left;overflow=fill;fontSize=14;fontFamily=Helvetica;html=1;rounded=0;shadow=0;comic=0;labelBackgroundColor=none;strokeWidth=1;">
      <mxGeometry x="-150" y="1120" width="287" height="232" as="geometry" />
    </mxCell>
    <mxCell id="node5" parent="1" vertex="1" value="&lt;p style=&quot;margin:0px;margin-top:4px;text-align:center;&quot;&gt;&lt;b&gt;users&lt;/b&gt;&lt;/p&gt;&lt;hr size=&quot;1&quot;/&gt;&lt;p style=&quot;margin:0 0 0 4px;line-height:1.6;&quot;&gt; primary_email: varchar(256)&lt;br/&gt; secondary_email: varchar(256)&lt;br/&gt; full_name: varchar(256)&lt;br/&gt; magicToken: varchar(256)&lt;br/&gt; is_completed: tinyint(1)&lt;br/&gt; location: varchar(256)&lt;br/&gt; bio: varchar(512)&lt;br/&gt; twitter: varchar(256)&lt;br/&gt; instagram: varchar(256)&lt;br/&gt; website: varchar(256)&lt;br/&gt; profile_icon: varchar(256)&lt;br/&gt; event_participation_enabled: tinyint(1)&lt;br/&gt; created_at: datetime(3)&lt;br/&gt; updated_at: datetime(3)&lt;br/&gt; contact: varchar(20)&lt;br/&gt; refreshToken: varchar(256)&lt;br/&gt; username: varchar(256)&lt;/p&gt;&lt;hr size=&quot;1&quot;/&gt;&lt;p style=&quot;margin:0 0 0 4px;line-height:1.6;&quot;&gt; id: varchar(191)&lt;/p&gt;" style="verticalAlign=top;align=left;overflow=fill;fontSize=14;fontFamily=Helvetica;html=1;rounded=0;shadow=0;comic=0;labelBackgroundColor=none;strokeWidth=1;">
      <mxGeometry x="39" y="-260" width="269" height="472" as="geometry" />
    </mxCell>
    <mxCell id="edge6" edge="1" value="" parent="1" source="node1" target="node3" style="html=1;rounded=1;edgeStyle=orthogonalEdgeStyle;dashed=0;startArrow=none;endArrow=block;endSize=12;strokeColor=#595959;exitX=0.250;exitY=0.000;exitDx=0;exitDy=0;entryX=0.500;entryY=1.000;entryDx=0;entryDy=0;">
      <mxGeometry width="50" height="50" relative="1" as="geometry">
        <Array as="points">
          <mxPoint x="359" y="876" />
          <mxPoint x="113" y="876" />
          <mxPoint x="113" y="836" />
          <mxPoint x="53" y="836" />
        </Array>
      </mxGeometry>
    </mxCell>
    <mxCell id="label38" parent="edge6" vertex="1" connectable="0" value="event_id:id" style="edgeLabel;resizable=0;html=1;align=left;verticalAlign=top;strokeColor=default;">
      <mxGeometry x="46" y="847" as="geometry" />
    </mxCell>
    <mxCell id="edge5" edge="1" value="" parent="1" source="node1" target="node5" style="html=1;rounded=1;edgeStyle=orthogonalEdgeStyle;dashed=0;startArrow=none;endArrow=block;endSize=12;strokeColor=#595959;exitX=0.750;exitY=0.000;exitDx=0;exitDy=0;entryX=0.750;entryY=1.000;entryDx=0;entryDy=0;">
      <mxGeometry width="50" height="50" relative="1" as="geometry">
        <Array as="points">
          <mxPoint x="467" y="856" />
          <mxPoint x="273" y="856" />
          <mxPoint x="273" y="276" />
          <mxPoint x="233" y="276" />
          <mxPoint x="233" y="236" />
          <mxPoint x="240" y="236" />
        </Array>
      </mxGeometry>
    </mxCell>
    <mxCell id="label32" parent="edge5" vertex="1" connectable="0" value="user_id:id" style="edgeLabel;resizable=0;html=1;align=left;verticalAlign=top;strokeColor=default;">
      <mxGeometry x="172" y="247" as="geometry" />
    </mxCell>
    <mxCell id="edge2" edge="1" value="" parent="1" source="node4" target="node3" style="html=1;rounded=1;edgeStyle=orthogonalEdgeStyle;dashed=0;startArrow=none;endArrow=block;endSize=12;strokeColor=#595959;exitX=0.250;exitY=0.000;exitDx=0;exitDy=0;entryX=0.500;entryY=1.000;entryDx=0;entryDy=0;">
      <mxGeometry width="50" height="50" relative="1" as="geometry">
        <Array as="points">
          <mxPoint x="128" y="876" />
          <mxPoint x="113" y="876" />
          <mxPoint x="113" y="836" />
          <mxPoint x="53" y="836" />
        </Array>
      </mxGeometry>
    </mxCell>
    <mxCell id="label14" parent="edge2" vertex="1" connectable="0" value="event_id:id" style="edgeLabel;resizable=0;html=1;align=left;verticalAlign=top;strokeColor=default;">
      <mxGeometry x="46" y="827" as="geometry" />
    </mxCell>
    <mxCell id="edge4" edge="1" value="" parent="1" source="node4" target="node5" style="html=1;rounded=1;edgeStyle=orthogonalEdgeStyle;dashed=0;startArrow=none;endArrow=block;endSize=12;strokeColor=#595959;exitX=0.750;exitY=0.000;exitDx=0;exitDy=0;entryX=0.750;entryY=1.000;entryDx=0;entryDy=0;">
      <mxGeometry width="50" height="50" relative="1" as="geometry">
        <Array as="points">
          <mxPoint x="218" y="836" />
          <mxPoint x="233" y="836" />
          <mxPoint x="233" y="236" />
          <mxPoint x="240" y="236" />
        </Array>
      </mxGeometry>
    </mxCell>
    <mxCell id="label26" parent="edge4" vertex="1" connectable="0" value="user_id:id" style="edgeLabel;resizable=0;html=1;align=left;verticalAlign=top;strokeColor=default;">
      <mxGeometry x="157" y="827" as="geometry" />
    </mxCell>
    <mxCell id="edge0" edge="1" value="" parent="1" source="node3" target="node5" style="html=1;rounded=1;edgeStyle=orthogonalEdgeStyle;dashed=0;startArrow=none;endArrow=block;endSize=12;strokeColor=#595959;exitX=0.500;exitY=0.000;exitDx=0;exitDy=0;entryX=0.250;entryY=1.000;entryDx=0;entryDy=0;">
      <mxGeometry width="50" height="50" relative="1" as="geometry">
        <Array as="points">
          <mxPoint x="53" y="256" />
          <mxPoint x="106" y="256" />
        </Array>
      </mxGeometry>
    </mxCell>
    <mxCell id="label2" parent="edge0" vertex="1" connectable="0" value="creator_id:id" style="edgeLabel;resizable=0;html=1;align=left;verticalAlign=top;strokeColor=default;">
      <mxGeometry x="29" y="225" as="geometry" />
    </mxCell>
    <mxCell id="edge3" edge="1" value="" parent="1" source="node0" target="node3" style="html=1;rounded=1;edgeStyle=orthogonalEdgeStyle;dashed=0;startArrow=none;endArrow=block;endSize=12;strokeColor=#595959;exitX=0.750;exitY=0.000;exitDx=0;exitDy=0;entryX=0.500;entryY=1.000;entryDx=0;entryDy=0;">
      <mxGeometry width="50" height="50" relative="1" as="geometry">
        <Array as="points">
          <mxPoint x="65" y="876" />
          <mxPoint x="113" y="876" />
          <mxPoint x="113" y="836" />
          <mxPoint x="53" y="836" />
        </Array>
      </mxGeometry>
    </mxCell>
    <mxCell id="label20" parent="edge3" vertex="1" connectable="0" value="event_id:id" style="edgeLabel;resizable=0;html=1;align=left;verticalAlign=top;strokeColor=default;">
      <mxGeometry x="-2" y="908" as="geometry" />
    </mxCell>
    <mxCell id="edge1" edge="1" value="" parent="1" source="node0" target="node5" style="html=1;rounded=1;edgeStyle=orthogonalEdgeStyle;dashed=0;startArrow=none;endArrow=block;endSize=12;strokeColor=#595959;exitX=0.250;exitY=0.000;exitDx=0;exitDy=0;entryX=0.750;entryY=1.000;entryDx=0;entryDy=0;">
      <mxGeometry width="50" height="50" relative="1" as="geometry">
        <Array as="points">
          <mxPoint x="-79" y="1096" />
          <mxPoint x="-127" y="1096" />
          <mxPoint x="-127" y="276" />
          <mxPoint x="233" y="276" />
          <mxPoint x="233" y="236" />
          <mxPoint x="240" y="236" />
        </Array>
      </mxGeometry>
    </mxCell>
    <mxCell id="label8" parent="edge1" vertex="1" connectable="0" value="user_id:id" style="edgeLabel;resizable=0;html=1;align=left;verticalAlign=top;strokeColor=default;">
      <mxGeometry x="-67" y="258" as="geometry" />
    </mxCell>
  </root>
</mxGraphModel>